<?xml version="1.0" standalone="no"?>
<!DOCTYPE svg PUBLIC "-//W3C//DTD SVG 20010904//EN"
 "http://www.w3.org/TR/2001/REC-SVG-20010904/DTD/svg10.dtd">
<svg version="1.0" xmlns="http://www.w3.org/2000/svg"
 width="400.000000pt" height="400.000000pt" viewBox="0 0 400.000000 400.000000"
 preserveAspectRatio="xMidYMid meet">
<metadata>
Created by potrace 1.11, written by Peter Selinger 2001-2013
</metadata>
<g transform="translate(0.000000,400.000000) scale(0.100000,-0.100000)"
fill="#000000" stroke="none">
<path d="M400 2691 l0 -861 -114 0 c-138 0 -161 -11 -161 -80 0 -69 23 -80
166 -80 l119 0 0 -25 0 -25 -117 0 c-135 0 -160 -11 -169 -70 -5 -28 -1 -40
20 -63 25 -27 25 -27 163 -27 l138 0 23 -72 c92 -287 322 -554 622 -720 102
-57 307 -137 392 -153 11 -2 27 -6 36 -9 9 -3 29 -7 45 -10 15 -3 35 -7 45
-10 95 -27 451 -41 617 -23 306 32 579 127 810 281 124 83 276 236 357 361 63
97 138 256 153 323 l7 32 137 0 c134 0 139 1 166 26 23 21 27 31 22 61 -10 62
-23 68 -162 71 -125 4 -125 4 -125 28 l0 24 120 0 c119 0 121 0 146 27 21 23
25 35 20 63 -9 60 -32 70 -162 70 l-114 0 0 861 0 860 -92 -49 c-51 -27 -147
-78 -213 -112 -66 -35 -201 -106 -299 -158 l-180 -95 -60 31 c-110 56 -278
117 -374 137 -9 2 -38 8 -63 14 -111 25 -388 35 -519 19 -189 -24 -328 -65
-511 -150 l-106 -50 -184 97 c-101 54 -236 124 -299 158 -63 33 -157 82 -207
109 l-93 49 0 -860z m1794 -773 c-3 -18 -18 -53 -33 -77 -90 -151 -324 -100
-356 77 l-5 32 200 0 200 0 -6 -32z"/>
</g>
</svg>
